<svg xmlns="http://www.w3.org/2000/svg" width="375" viewBox="0 0 375 375" height="375" version="1.0"><defs><clipPath id="a"><path d="M 30.363281 77 L 344.613281 77 L 344.613281 296 L 30.363281 296 Z M 30.363281 77"/></clipPath><clipPath id="b"><path d="M 124 75.734375 L 313 75.734375 L 313 190 L 124 190 Z M 124 75.734375"/></clipPath><clipPath id="c"><path d="M 135 288 L 169 288 L 169 299.234375 L 135 299.234375 Z M 135 288"/></clipPath><clipPath id="d"><path d="M 175 288 L 195 288 L 195 299.234375 L 175 299.234375 Z M 175 288"/></clipPath><clipPath id="e"><path d="M 202 288 L 279 288 L 279 299.234375 L 202 299.234375 Z M 202 288"/></clipPath></defs><path fill="#FFF" d="M-37.5 -37.5H412.5V412.5H-37.5z"/><path fill="#FFF" d="M-37.5 -37.5H412.5V412.5H-37.5z"/><path fill="#FFF" d="M-37.5 -37.5H412.5V412.5H-37.5z"/><g clip-path="url(#a)"><path d="M 338.269531 267.429688 L 308.179688 267.429688 L 308.179688 154.074219 C 308.179688 151.265625 305.902344 148.988281 303.09375 148.988281 L 281.628906 148.988281 C 278.820312 148.988281 276.542969 151.265625 276.542969 154.074219 L 276.542969 267.429688 L 264.652344 267.429688 L 264.652344 203.648438 C 264.652344 200.839844 262.375 198.5625 259.566406 198.5625 L 238.101562 198.5625 C 235.292969 198.5625 233.015625 200.839844 233.015625 203.648438 L 233.015625 267.429688 L 221.125 267.429688 L 221.125 175.089844 C 221.125 172.28125 218.847656 170.003906 216.039062 170.003906 L 194.574219 170.003906 C 191.765625 170.003906 189.488281 172.28125 189.488281 175.089844 L 189.488281 267.429688 L 177.597656 267.429688 L 177.597656 223.527344 C 177.597656 220.71875 175.320312 218.441406 172.511719 218.441406 L 151.046875 218.441406 C 148.238281 218.441406 145.960938 220.71875 145.960938 223.527344 L 145.960938 267.429688 L 128.878906 267.429688 C 132.855469 260.054688 135.117188 251.621094 135.117188 242.667969 C 135.117188 216.082031 115.203125 194.074219 89.511719 190.738281 L 89.511719 83.804688 C 89.511719 80.292969 86.664062 77.445312 83.152344 77.445312 C 79.640625 77.445312 76.796875 80.292969 76.796875 83.804688 L 76.796875 190.632812 C 50.695312 193.589844 30.347656 215.792969 30.347656 242.667969 C 30.347656 271.554688 53.847656 295.050781 82.730469 295.050781 C 96.9375 295.050781 109.832031 289.359375 119.277344 280.144531 L 338.273438 280.144531 C 341.785156 280.144531 344.628906 277.300781 344.628906 273.789062 C 344.628906 270.277344 341.78125 267.429688 338.269531 267.429688 Z M 286.714844 159.160156 L 298.007812 159.160156 L 298.007812 267.429688 L 286.714844 267.429688 Z M 243.1875 208.734375 L 254.480469 208.734375 L 254.480469 267.429688 L 243.1875 267.429688 Z M 199.65625 180.175781 L 210.949219 180.175781 L 210.949219 267.429688 L 199.65625 267.429688 Z M 156.128906 228.613281 L 167.421875 228.613281 L 167.421875 267.429688 L 156.128906 267.429688 Z M 71.601562 264.289062 C 69.453125 263.019531 67.703125 261.324219 66.355469 259.203125 C 65.011719 257.085938 64.339844 255.023438 64.339844 253.023438 C 64.339844 251.859375 64.742188 250.867188 65.550781 250.035156 C 66.355469 249.210938 67.382812 248.792969 68.632812 248.792969 C 69.644531 248.792969 70.5 249.117188 71.199219 249.761719 C 71.898438 250.410156 72.496094 251.367188 72.992188 252.636719 C 73.59375 254.140625 74.246094 255.402344 74.945312 256.414062 C 75.644531 257.425781 76.628906 258.257812 77.898438 258.914062 C 79.167969 259.570312 80.835938 259.898438 82.902344 259.898438 C 85.742188 259.898438 88.050781 259.238281 89.828125 257.914062 C 91.601562 256.589844 92.488281 254.9375 92.488281 252.957031 C 92.488281 251.386719 92.011719 250.113281 91.054688 249.132812 C 90.09375 248.15625 88.859375 247.40625 87.339844 246.890625 C 85.824219 246.371094 83.796875 245.824219 81.253906 245.242188 C 77.855469 244.445312 75.007812 243.515625 72.714844 242.449219 C 70.425781 241.386719 68.605469 239.933594 67.261719 238.09375 C 65.914062 236.253906 65.242188 233.964844 65.242188 231.234375 C 65.242188 228.628906 65.953125 226.316406 67.375 224.292969 C 68.792969 222.269531 70.847656 220.714844 73.539062 219.628906 C 75.308594 218.914062 77.289062 218.4375 79.46875 218.191406 L 79.46875 214.183594 C 79.46875 212.164062 81.125 210.511719 83.144531 210.511719 C 85.164062 210.511719 86.820312 212.164062 86.820312 214.183594 L 86.820312 218.238281 C 88.179688 218.417969 89.433594 218.691406 90.570312 219.078125 C 92.6875 219.800781 94.449219 220.757812 95.847656 221.949219 C 97.246094 223.144531 98.269531 224.398438 98.914062 225.710938 C 99.558594 227.023438 99.882812 228.304688 99.882812 229.554688 C 99.882812 230.695312 99.476562 231.722656 98.671875 232.636719 C 97.863281 233.550781 96.859375 234.007812 95.652344 234.007812 C 94.554688 234.007812 93.722656 233.734375 93.152344 233.183594 C 92.578125 232.636719 91.960938 231.738281 91.296875 230.488281 C 90.433594 228.703125 89.402344 227.308594 88.195312 226.308594 C 86.992188 225.308594 85.054688 224.808594 82.382812 224.808594 C 79.910156 224.808594 77.914062 225.351562 76.398438 226.4375 C 74.878906 227.527344 74.121094 228.832031 74.121094 230.359375 C 74.121094 231.308594 74.378906 232.125 74.894531 232.8125 C 75.410156 233.503906 76.121094 234.09375 77.027344 234.589844 C 77.929688 235.085938 78.84375 235.472656 79.769531 235.753906 C 80.695312 236.03125 82.222656 236.441406 84.355469 236.980469 C 87.023438 237.601562 89.4375 238.292969 91.601562 239.042969 C 93.765625 239.796875 95.605469 240.710938 97.121094 241.789062 C 98.640625 242.867188 99.824219 244.226562 100.671875 245.871094 C 101.523438 247.519531 101.949219 249.535156 101.949219 251.925781 C 101.949219 254.789062 101.210938 257.359375 99.734375 259.640625 C 98.261719 261.921875 96.105469 263.707031 93.261719 265 C 91.351562 265.871094 89.191406 266.4375 86.800781 266.722656 C 86.804688 266.777344 86.816406 266.824219 86.816406 266.878906 L 86.816406 270.972656 C 86.816406 272.992188 85.164062 274.648438 83.140625 274.648438 C 81.121094 274.648438 79.46875 272.992188 79.46875 270.972656 L 79.46875 266.878906 C 79.46875 266.828125 79.480469 266.78125 79.480469 266.726562 C 76.429688 266.375 73.800781 265.566406 71.601562 264.289062 Z M 71.601562 264.289062"/></g><g clip-path="url(#b)"><path d="M 130.453125 189.617188 C 132.078125 189.617188 133.707031 188.996094 134.945312 187.753906 L 197.804688 124.902344 L 230.726562 157.824219 C 231.917969 159.015625 233.535156 159.683594 235.21875 159.683594 C 236.90625 159.683594 238.523438 159.015625 239.714844 157.824219 L 290.289062 107.25 L 298.1875 115.148438 C 298.996094 115.953125 300.078125 116.386719 301.1875 116.386719 C 301.585938 116.386719 301.992188 116.332031 302.386719 116.214844 C 303.875 115.773438 305.003906 114.554688 305.328125 113.039062 L 312.179688 81.074219 C 312.480469 79.667969 312.046875 78.207031 311.03125 77.1875 C 310.015625 76.171875 308.550781 75.742188 307.148438 76.042969 L 275.179688 82.890625 C 273.664062 83.214844 272.445312 84.347656 272.003906 85.835938 C 271.566406 87.324219 271.972656 88.933594 273.074219 90.03125 L 281.300781 98.257812 L 235.21875 144.335938 L 202.296875 111.414062 C 199.816406 108.933594 195.789062 108.933594 193.304688 111.414062 L 125.957031 178.765625 C 123.472656 181.246094 123.472656 185.273438 125.957031 187.753906 C 127.195312 188.996094 128.824219 189.617188 130.453125 189.617188 Z M 130.453125 189.617188"/></g><g clip-path="url(#c)"><path d="M 163.160156 288.988281 L 140.382812 288.988281 C 137.574219 288.988281 135.296875 291.265625 135.296875 294.074219 C 135.296875 296.882812 137.574219 299.15625 140.382812 299.15625 L 163.160156 299.15625 C 165.972656 299.15625 168.246094 296.878906 168.246094 294.074219 C 168.246094 291.265625 165.972656 288.988281 163.160156 288.988281 Z M 163.160156 288.988281"/></g><g clip-path="url(#d)"><path d="M 188.9375 288.988281 L 180.554688 288.988281 C 177.746094 288.988281 175.46875 291.265625 175.46875 294.074219 C 175.46875 296.882812 177.746094 299.15625 180.554688 299.15625 L 188.9375 299.15625 C 191.746094 299.15625 194.023438 296.878906 194.023438 294.074219 C 194.023438 291.265625 191.746094 288.988281 188.9375 288.988281 Z M 188.9375 288.988281"/></g><g clip-path="url(#e)"><path d="M 272.980469 288.988281 L 207.308594 288.988281 C 204.5 288.988281 202.222656 291.265625 202.222656 294.074219 C 202.222656 296.882812 204.5 299.15625 207.308594 299.15625 L 272.980469 299.15625 C 275.792969 299.15625 278.066406 296.878906 278.066406 294.074219 C 278.066406 291.265625 275.789062 288.988281 272.980469 288.988281 Z M 272.980469 288.988281"/></g></svg>